<?xml version="1.0" ?><svg id="Layer_1" style="enable-background:new 0 0 60 60;" version="1.1" viewBox="0 0 60 60" xml:space="preserve" xmlns="http://www.w3.org/2000/svg" xmlns:xlink="http://www.w3.org/1999/xlink" fill-opacity="75%"><path d="M26.34375,46.6774902c3.5999756,0,7.1799927-0.9599609,10.3699951-2.8499756l8.6900024,8.6900024  c0.9500122,0.9500122,2.2199707,1.4799805,3.5599976,1.4799805c1.3499756,0,2.6099854-0.5299683,3.5599976-1.4799805  c1.960022-1.960022,1.960022-5.1500244,0-7.1099854l-8.6900024-8.7000122c4.6199951-7.7999878,3.6099854-18.0499878-3.0999756-24.75  c-7.9300537-7.9400024-20.8400269-7.9400024-28.7800293,0c-7.9299927,7.9299927-7.9299927,20.8399658,0,28.7699585  C15.9237061,44.6975098,21.133728,46.6774902,26.34375,46.6774902z M13.3737183,13.3674927  c7.1500244-7.1499634,18.7900391-7.1499634,25.9500122,0c7.1500244,7.1500244,7.1500244,18.7999878,0,25.9500122  c-7.1599731,7.1500244-18.7999878,7.1500244-25.9500122,0C6.2137451,32.1674805,6.2137451,20.5175171,13.3737183,13.3674927z"/><path d="M26.34375,38.3574829c0.289978,0,0.5599976-0.1199951,0.75-0.3299561  c0.8699951-0.9700317,8.5100098-9.6400146,8.5100098-14.4500122c0-5.1000366-4.1500244-9.25-9.2600098-9.25  c-5.1000366,0-9.2600098,4.1499634-9.2600098,9.25c0,4.8099976,7.6500244,13.4799805,8.5200195,14.4500122  C25.7937622,38.2374878,26.0637207,38.3574829,26.34375,38.3574829z M21.9937134,23.5775146  c0-2.3900146,1.960022-4.3400269,4.3500366-4.3400269c2.3999634,0,4.3499756,1.9500122,4.3499756,4.3400269  c0,2.3999634-1.9500122,4.3499756-4.3499756,4.3499756C23.9537354,27.9274902,21.9937134,25.977478,21.9937134,23.5775146z"/></svg>